# xmcd
# Copyright (C) 1995-1998 Ti Kan
#
# Track frame offsets:
#       150
#       34330
#       59140
#       90892
#       94000
#       117100
#       134712
#       146550
#       148282
#       185270
#       231522
#       254805
#       285197
#       309545
#       336302
#
# Disc length: 4505 seconds
#
# Revision: 0
# Processed by: cddbd v1.4PL0 Copyright (c) Steve Scherf et al.
# Submitted via: CD-Transfer v1.0
#
DISCID=eb11970f
DTITLE=Heimbach Chamber Orchestra - Haydn - Mozart
DYEAR=02
DGENRE=
TTITLE0=Haydn - Klaviertrio C-dur - Allegro 
TTITLE1=Haydn - Klaviertrio C-dur - Andante
TTITLE2=Haydn - Klaviertrio C-dur  - Presto 
TTITLE3=
TTITLE4=Mozart - Sonate für Fagott - Allegro
TTITLE5=Mozart - Sonate für Fagott - Andante
TTITLE6=Mozart - Sonate für Fagott - Rondo allegro
TTITLE7=
TTITLE8=Mozart - Divertimento für Streichtrio - Allegro
TTITLE9=Mozart - Divertimento für Streichtrio - Adagio
TTITLE10=Mozart - Divertimento für Streichtrio - Menuetto
TTITLE11=Mozart - Divertimento für Streichtrio - Andante
TTITLE12=Mozart - Divertimento für Streichtrio - Menuetto
TTITLE13=Mozart - Divertimento für Streichtrio - Allegro
TTITLE14=
EXTD=
EXTT0=
EXTT1=
EXTT2=
EXTT3=
EXTT4=
EXTT5=
EXTT6=
EXTT7=
EXTT8=
EXTT9=
EXTT10=
EXTT11=
EXTT12=
EXTT13=
EXTT14=
PLAYORDER=
